<mxfile host="app.diagrams.net" modified="2024-05-21T16:17:57.109Z" agent="Mozilla/5.0 (Windows NT 10.0; Win64; x64) AppleWebKit/537.36 (KHTML, like Gecko) Chrome/123.0.0.0 Safari/537.36 OPR/109.0.0.0" etag="Zr_Ss9MdIdWHL0xM3bcW" version="24.4.4" type="device" pages="4">
  <diagram name="DE - Crawler" id="9xNMujUlzLksT8GCPlML">
    <mxGraphModel dx="2033" dy="804" grid="1" gridSize="10" guides="1" tooltips="1" connect="1" arrows="1" fold="1" page="1" pageScale="1" pageWidth="827" pageHeight="1169" math="0" shadow="0">
      <root>
        <mxCell id="0" />
        <mxCell id="1" parent="0" />
        <mxCell id="cqbVbwcF_bbiFiC44ExB-3" style="edgeStyle=orthogonalEdgeStyle;rounded=0;orthogonalLoop=1;jettySize=auto;html=1;entryX=0;entryY=0.5;entryDx=0;entryDy=0;" parent="1" source="kfAu8-7spN8CnpjQG4le-2" target="kfAu8-7spN8CnpjQG4le-10" edge="1">
          <mxGeometry relative="1" as="geometry" />
        </mxCell>
        <mxCell id="kfAu8-7spN8CnpjQG4le-2" value="Abastecido" style="swimlane;childLayout=stackLayout;horizontal=1;startSize=50;horizontalStack=0;rounded=1;fontSize=14;fontStyle=0;strokeWidth=2;resizeParent=0;resizeLast=1;shadow=0;dashed=0;align=center;arcSize=4;whiteSpace=wrap;html=1;" parent="1" vertex="1">
          <mxGeometry x="360" y="213" width="160" height="85" as="geometry" />
        </mxCell>
        <mxCell id="kfAu8-7spN8CnpjQG4le-4" value="" style="ellipse;html=1;shape=endState;fillColor=#000000;strokeColor=#ff0000;" parent="1" vertex="1">
          <mxGeometry x="665" y="520" width="30" height="30" as="geometry" />
        </mxCell>
        <mxCell id="kfAu8-7spN8CnpjQG4le-7" style="edgeStyle=orthogonalEdgeStyle;rounded=0;orthogonalLoop=1;jettySize=auto;html=1;" parent="1" source="kfAu8-7spN8CnpjQG4le-6" edge="1">
          <mxGeometry relative="1" as="geometry">
            <mxPoint x="160" y="255" as="targetPoint" />
          </mxGeometry>
        </mxCell>
        <mxCell id="kfAu8-7spN8CnpjQG4le-6" value="" style="ellipse;whiteSpace=wrap;html=1;aspect=fixed;fillColor=#f9f7ed;strokeColor=#36393d;" parent="1" vertex="1">
          <mxGeometry x="10" y="240" width="30" height="30" as="geometry" />
        </mxCell>
        <mxCell id="kfAu8-7spN8CnpjQG4le-8" value="&lt;font style=&quot;font-size: 40px;&quot;&gt;Crawler&lt;/font&gt;" style="text;html=1;align=center;verticalAlign=middle;resizable=0;points=[];autosize=1;strokeColor=none;fillColor=none;" parent="1" vertex="1">
          <mxGeometry x="300" y="53" width="160" height="60" as="geometry" />
        </mxCell>
        <mxCell id="cqbVbwcF_bbiFiC44ExB-5" style="edgeStyle=orthogonalEdgeStyle;rounded=0;orthogonalLoop=1;jettySize=auto;html=1;entryX=0.5;entryY=0;entryDx=0;entryDy=0;" parent="1" source="kfAu8-7spN8CnpjQG4le-9" target="kfAu8-7spN8CnpjQG4le-4" edge="1">
          <mxGeometry relative="1" as="geometry" />
        </mxCell>
        <mxCell id="kfAu8-7spN8CnpjQG4le-9" value="Armazenando ConteÃºdo" style="swimlane;childLayout=stackLayout;horizontal=1;startSize=50;horizontalStack=0;rounded=1;fontSize=14;fontStyle=0;strokeWidth=2;resizeParent=0;resizeLast=1;shadow=0;dashed=0;align=center;arcSize=4;whiteSpace=wrap;html=1;" parent="1" vertex="1">
          <mxGeometry x="600" y="360" width="160" height="85" as="geometry" />
        </mxCell>
        <mxCell id="cqbVbwcF_bbiFiC44ExB-4" style="edgeStyle=orthogonalEdgeStyle;rounded=0;orthogonalLoop=1;jettySize=auto;html=1;entryX=0.5;entryY=0;entryDx=0;entryDy=0;" parent="1" source="kfAu8-7spN8CnpjQG4le-10" target="kfAu8-7spN8CnpjQG4le-9" edge="1">
          <mxGeometry relative="1" as="geometry" />
        </mxCell>
        <mxCell id="kfAu8-7spN8CnpjQG4le-10" value="Pesquisa de Dados" style="swimlane;childLayout=stackLayout;horizontal=1;startSize=50;horizontalStack=0;rounded=1;fontSize=14;fontStyle=0;strokeWidth=2;resizeParent=0;resizeLast=1;shadow=0;dashed=0;align=center;arcSize=4;whiteSpace=wrap;html=1;" parent="1" vertex="1">
          <mxGeometry x="600" y="212.5" width="160" height="85" as="geometry" />
        </mxCell>
        <mxCell id="jtXHg9V6n9QFiWOQHvRo-2" value="do /busca()" style="text;html=1;align=center;verticalAlign=middle;resizable=0;points=[];autosize=1;strokeColor=none;fillColor=none;" parent="kfAu8-7spN8CnpjQG4le-10" vertex="1">
          <mxGeometry y="50" width="160" height="35" as="geometry" />
        </mxCell>
        <mxCell id="cqbVbwcF_bbiFiC44ExB-2" style="edgeStyle=orthogonalEdgeStyle;rounded=0;orthogonalLoop=1;jettySize=auto;html=1;entryX=0;entryY=0.5;entryDx=0;entryDy=0;" parent="1" source="cqbVbwcF_bbiFiC44ExB-1" target="kfAu8-7spN8CnpjQG4le-2" edge="1">
          <mxGeometry relative="1" as="geometry" />
        </mxCell>
        <mxCell id="cqbVbwcF_bbiFiC44ExB-1" value="Sem Dados" style="swimlane;childLayout=stackLayout;horizontal=1;startSize=50;horizontalStack=0;rounded=1;fontSize=14;fontStyle=0;strokeWidth=2;resizeParent=0;resizeLast=1;shadow=0;dashed=0;align=center;arcSize=4;whiteSpace=wrap;html=1;" parent="1" vertex="1">
          <mxGeometry x="100" y="212.5" width="160" height="85" as="geometry" />
        </mxCell>
        <mxCell id="jtXHg9V6n9QFiWOQHvRo-1" value="do /atualizaURLs()" style="text;html=1;align=center;verticalAlign=middle;resizable=0;points=[];autosize=1;strokeColor=none;fillColor=none;" parent="1" vertex="1">
          <mxGeometry x="390" y="268" width="120" height="30" as="geometry" />
        </mxCell>
        <mxCell id="jtXHg9V6n9QFiWOQHvRo-4" value="do /storeContent()" style="text;html=1;align=center;verticalAlign=middle;resizable=0;points=[];autosize=1;strokeColor=none;fillColor=none;" parent="1" vertex="1">
          <mxGeometry x="610" y="408" width="120" height="30" as="geometry" />
        </mxCell>
      </root>
    </mxGraphModel>
  </diagram>
  <diagram id="KzJYx-17iR-VhBiHGrCX" name="DE - Fetcher">
    <mxGraphModel grid="1" page="1" gridSize="10" guides="1" tooltips="1" connect="1" arrows="1" fold="1" pageScale="1" pageWidth="827" pageHeight="1169" math="0" shadow="0">
      <root>
        <mxCell id="0" />
        <mxCell id="1" parent="0" />
        <mxCell id="f3DdB8-7DULBCzmjG1NS-1" style="edgeStyle=orthogonalEdgeStyle;rounded=0;orthogonalLoop=1;jettySize=auto;html=1;entryX=0;entryY=0.5;entryDx=0;entryDy=0;" edge="1" parent="1" source="f3DdB8-7DULBCzmjG1NS-2" target="f3DdB8-7DULBCzmjG1NS-10">
          <mxGeometry relative="1" as="geometry" />
        </mxCell>
        <mxCell id="f3DdB8-7DULBCzmjG1NS-2" value="Pesquisa Fronteira" style="swimlane;childLayout=stackLayout;horizontal=1;startSize=50;horizontalStack=0;rounded=1;fontSize=14;fontStyle=0;strokeWidth=2;resizeParent=0;resizeLast=1;shadow=0;dashed=0;align=center;arcSize=4;whiteSpace=wrap;html=1;" vertex="1" parent="1">
          <mxGeometry x="380" y="212.5" width="160" height="85" as="geometry" />
        </mxCell>
        <mxCell id="uo_bJy7aYgEMZKwGv6G--1" value="/do frontierURL()" style="text;html=1;align=center;verticalAlign=middle;resizable=0;points=[];autosize=1;strokeColor=none;fillColor=none;" vertex="1" parent="f3DdB8-7DULBCzmjG1NS-2">
          <mxGeometry y="50" width="160" height="35" as="geometry" />
        </mxCell>
        <mxCell id="f3DdB8-7DULBCzmjG1NS-3" value="" style="ellipse;html=1;shape=endState;fillColor=#000000;strokeColor=#ff0000;" vertex="1" parent="1">
          <mxGeometry x="667.5" y="370" width="30" height="30" as="geometry" />
        </mxCell>
        <mxCell id="f3DdB8-7DULBCzmjG1NS-4" style="edgeStyle=orthogonalEdgeStyle;rounded=0;orthogonalLoop=1;jettySize=auto;html=1;" edge="1" parent="1" source="f3DdB8-7DULBCzmjG1NS-5">
          <mxGeometry relative="1" as="geometry">
            <mxPoint x="160" y="255" as="targetPoint" />
          </mxGeometry>
        </mxCell>
        <mxCell id="f3DdB8-7DULBCzmjG1NS-5" value="" style="ellipse;whiteSpace=wrap;html=1;aspect=fixed;fillColor=#f9f7ed;strokeColor=#36393d;" vertex="1" parent="1">
          <mxGeometry x="10" y="240" width="30" height="30" as="geometry" />
        </mxCell>
        <mxCell id="f3DdB8-7DULBCzmjG1NS-9" style="edgeStyle=orthogonalEdgeStyle;rounded=0;orthogonalLoop=1;jettySize=auto;html=1;entryX=0.5;entryY=0;entryDx=0;entryDy=0;" edge="1" parent="1" source="f3DdB8-7DULBCzmjG1NS-10">
          <mxGeometry relative="1" as="geometry">
            <mxPoint x="682.5" y="360" as="targetPoint" />
          </mxGeometry>
        </mxCell>
        <mxCell id="f3DdB8-7DULBCzmjG1NS-10" value="Abastecido" style="swimlane;childLayout=stackLayout;horizontal=1;startSize=50;horizontalStack=0;rounded=1;fontSize=14;fontStyle=0;strokeWidth=2;resizeParent=0;resizeLast=1;shadow=0;dashed=0;align=center;arcSize=4;whiteSpace=wrap;html=1;" vertex="1" parent="1">
          <mxGeometry x="600" y="212.5" width="165" height="85" as="geometry" />
        </mxCell>
        <mxCell id="uo_bJy7aYgEMZKwGv6G--2" value="do /comunica com Internet" style="text;html=1;align=center;verticalAlign=middle;resizable=0;points=[];autosize=1;strokeColor=none;fillColor=none;" vertex="1" parent="f3DdB8-7DULBCzmjG1NS-10">
          <mxGeometry y="50" width="165" height="35" as="geometry" />
        </mxCell>
        <mxCell id="f3DdB8-7DULBCzmjG1NS-11" style="edgeStyle=orthogonalEdgeStyle;rounded=0;orthogonalLoop=1;jettySize=auto;html=1;entryX=0;entryY=0.5;entryDx=0;entryDy=0;" edge="1" parent="1" source="f3DdB8-7DULBCzmjG1NS-12" target="f3DdB8-7DULBCzmjG1NS-2">
          <mxGeometry relative="1" as="geometry" />
        </mxCell>
        <mxCell id="f3DdB8-7DULBCzmjG1NS-12" value="Vazio" style="swimlane;childLayout=stackLayout;horizontal=1;startSize=50;horizontalStack=0;rounded=1;fontSize=14;fontStyle=0;strokeWidth=2;resizeParent=0;resizeLast=1;shadow=0;dashed=0;align=center;arcSize=4;whiteSpace=wrap;html=1;" vertex="1" parent="1">
          <mxGeometry x="160" y="212.5" width="160" height="85" as="geometry" />
        </mxCell>
        <mxCell id="iPNBF64CQte7NCTMTNsE-1" value="&lt;font style=&quot;font-size: 40px;&quot;&gt;Fetcher&lt;/font&gt;" style="text;html=1;align=center;verticalAlign=middle;resizable=0;points=[];autosize=1;strokeColor=none;fillColor=none;" vertex="1" parent="1">
          <mxGeometry x="300" y="53" width="160" height="60" as="geometry" />
        </mxCell>
      </root>
    </mxGraphModel>
  </diagram>
  <diagram id="k_xOPBO3l8IfbI_-44rA" name="DE - DNS">
    <mxGraphModel grid="1" page="1" gridSize="10" guides="1" tooltips="1" connect="1" arrows="1" fold="1" pageScale="1" pageWidth="827" pageHeight="1169" math="0" shadow="0">
      <root>
        <mxCell id="0" />
        <mxCell id="1" parent="0" />
        <mxCell id="7dn9fYxT8fN-7_6PDpfM-4" style="edgeStyle=orthogonalEdgeStyle;rounded=0;orthogonalLoop=1;jettySize=auto;html=1;entryX=0;entryY=0.5;entryDx=0;entryDy=0;" edge="1" parent="1" source="lJnn1hOtQvQEHFWve7Z--1" target="lJnn1hOtQvQEHFWve7Z--3">
          <mxGeometry relative="1" as="geometry" />
        </mxCell>
        <mxCell id="_nZmj1FFM9pvGY3tv3fc-1" value="Identifica Host e IP" style="edgeLabel;html=1;align=center;verticalAlign=middle;resizable=0;points=[];" connectable="0" vertex="1" parent="7dn9fYxT8fN-7_6PDpfM-4">
          <mxGeometry x="-0.2909" y="3" relative="1" as="geometry">
            <mxPoint as="offset" />
          </mxGeometry>
        </mxCell>
        <mxCell id="lJnn1hOtQvQEHFWve7Z--1" value="Sem ConexÃ£o" style="swimlane;childLayout=stackLayout;horizontal=1;startSize=50;horizontalStack=0;rounded=1;fontSize=14;fontStyle=0;strokeWidth=2;resizeParent=0;resizeLast=1;shadow=0;dashed=0;align=center;arcSize=4;whiteSpace=wrap;html=1;" vertex="1" parent="1">
          <mxGeometry x="180" y="190" width="160" height="80" as="geometry" />
        </mxCell>
        <mxCell id="7dn9fYxT8fN-7_6PDpfM-5" style="edgeStyle=orthogonalEdgeStyle;rounded=0;orthogonalLoop=1;jettySize=auto;html=1;" edge="1" parent="1" source="lJnn1hOtQvQEHFWve7Z--3" target="lJnn1hOtQvQEHFWve7Z--4">
          <mxGeometry relative="1" as="geometry" />
        </mxCell>
        <mxCell id="lJnn1hOtQvQEHFWve7Z--3" value="Conectado" style="swimlane;childLayout=stackLayout;horizontal=1;startSize=50;horizontalStack=0;rounded=1;fontSize=14;fontStyle=0;strokeWidth=2;resizeParent=0;resizeLast=1;shadow=0;dashed=0;align=center;arcSize=4;whiteSpace=wrap;html=1;" vertex="1" parent="1">
          <mxGeometry x="500" y="190" width="160" height="80" as="geometry" />
        </mxCell>
        <mxCell id="QSgUhvZyUqBF5xjux-Oz-1" value="do /resolver()" style="text;html=1;align=center;verticalAlign=middle;resizable=0;points=[];autosize=1;strokeColor=none;fillColor=none;" vertex="1" parent="lJnn1hOtQvQEHFWve7Z--3">
          <mxGeometry y="50" width="160" height="30" as="geometry" />
        </mxCell>
        <mxCell id="lJnn1hOtQvQEHFWve7Z--4" value="" style="ellipse;html=1;shape=endState;fillColor=#000000;strokeColor=#ff0000;" vertex="1" parent="1">
          <mxGeometry x="565" y="350" width="30" height="30" as="geometry" />
        </mxCell>
        <mxCell id="7dn9fYxT8fN-7_6PDpfM-3" style="edgeStyle=orthogonalEdgeStyle;rounded=0;orthogonalLoop=1;jettySize=auto;html=1;entryX=0;entryY=0.5;entryDx=0;entryDy=0;" edge="1" parent="1" source="lJnn1hOtQvQEHFWve7Z--5" target="lJnn1hOtQvQEHFWve7Z--1">
          <mxGeometry relative="1" as="geometry" />
        </mxCell>
        <mxCell id="_nZmj1FFM9pvGY3tv3fc-2" value="Inicializa DNS" style="edgeLabel;html=1;align=center;verticalAlign=middle;resizable=0;points=[];" connectable="0" vertex="1" parent="7dn9fYxT8fN-7_6PDpfM-3">
          <mxGeometry x="-0.2545" y="-2" relative="1" as="geometry">
            <mxPoint x="9" y="-2" as="offset" />
          </mxGeometry>
        </mxCell>
        <mxCell id="lJnn1hOtQvQEHFWve7Z--5" value="" style="strokeWidth=2;html=1;shape=mxgraph.flowchart.start_2;whiteSpace=wrap;" vertex="1" parent="1">
          <mxGeometry x="40" y="215" width="30" height="30" as="geometry" />
        </mxCell>
        <mxCell id="7dn9fYxT8fN-7_6PDpfM-1" value="&lt;font style=&quot;font-size: 40px;&quot;&gt;DNS&lt;/font&gt;" style="text;html=1;align=center;verticalAlign=middle;resizable=0;points=[];autosize=1;strokeColor=none;fillColor=none;" vertex="1" parent="1">
          <mxGeometry x="325" y="53" width="110" height="60" as="geometry" />
        </mxCell>
      </root>
    </mxGraphModel>
  </diagram>
  <diagram id="P9RJEKTP_0M1nMr1R6yX" name="DE - Cache">
    <mxGraphModel grid="1" page="1" gridSize="10" guides="1" tooltips="1" connect="1" arrows="1" fold="1" pageScale="1" pageWidth="827" pageHeight="1169" math="0" shadow="0">
      <root>
        <mxCell id="0" />
        <mxCell id="1" parent="0" />
        <mxCell id="sv4MF4fnECCsAf4Mp550-3" style="edgeStyle=orthogonalEdgeStyle;rounded=0;orthogonalLoop=1;jettySize=auto;html=1;" edge="1" parent="1" source="Yj814bwFjNX4voatIRAS-1" target="Yj814bwFjNX4voatIRAS-2">
          <mxGeometry relative="1" as="geometry" />
        </mxCell>
        <mxCell id="OjPTFJ4K3kEGELKlhBjy-2" value="ConteÃºdo recebido" style="edgeLabel;html=1;align=center;verticalAlign=middle;resizable=0;points=[];" connectable="0" vertex="1" parent="sv4MF4fnECCsAf4Mp550-3">
          <mxGeometry x="-0.3077" relative="1" as="geometry">
            <mxPoint x="15" as="offset" />
          </mxGeometry>
        </mxCell>
        <mxCell id="Yj814bwFjNX4voatIRAS-1" value="Sem conteÃºdo" style="swimlane;childLayout=stackLayout;horizontal=1;startSize=50;horizontalStack=0;rounded=1;fontSize=14;fontStyle=0;strokeWidth=2;resizeParent=0;resizeLast=1;shadow=0;dashed=0;align=center;arcSize=4;whiteSpace=wrap;html=1;" vertex="1" parent="1">
          <mxGeometry x="190" y="190" width="160" height="80" as="geometry" />
        </mxCell>
        <mxCell id="Yj814bwFjNX4voatIRAS-2" value="ConteÃºdo Baixado" style="swimlane;childLayout=stackLayout;horizontal=1;startSize=50;horizontalStack=0;rounded=1;fontSize=14;fontStyle=0;strokeWidth=2;resizeParent=0;resizeLast=1;shadow=0;dashed=0;align=center;arcSize=4;whiteSpace=wrap;html=1;" vertex="1" parent="1">
          <mxGeometry x="480" y="190" width="160" height="80" as="geometry" />
        </mxCell>
        <mxCell id="sv4MF4fnECCsAf4Mp550-2" style="edgeStyle=orthogonalEdgeStyle;rounded=0;orthogonalLoop=1;jettySize=auto;html=1;" edge="1" parent="1" source="Yj814bwFjNX4voatIRAS-3">
          <mxGeometry relative="1" as="geometry">
            <mxPoint x="180" y="230" as="targetPoint" />
          </mxGeometry>
        </mxCell>
        <mxCell id="OjPTFJ4K3kEGELKlhBjy-3" value="Inicaliza Cache" style="edgeLabel;html=1;align=center;verticalAlign=middle;resizable=0;points=[];" connectable="0" vertex="1" parent="sv4MF4fnECCsAf4Mp550-2">
          <mxGeometry x="-0.3234" y="-1" relative="1" as="geometry">
            <mxPoint x="16" y="-1" as="offset" />
          </mxGeometry>
        </mxCell>
        <mxCell id="Yj814bwFjNX4voatIRAS-3" value="" style="strokeWidth=2;html=1;shape=mxgraph.flowchart.start_2;whiteSpace=wrap;" vertex="1" parent="1">
          <mxGeometry x="20" y="215" width="30" height="30" as="geometry" />
        </mxCell>
        <mxCell id="Yj814bwFjNX4voatIRAS-4" value="" style="ellipse;html=1;shape=endState;fillColor=#000000;strokeColor=#ff0000;" vertex="1" parent="1">
          <mxGeometry x="545" y="440" width="30" height="30" as="geometry" />
        </mxCell>
        <mxCell id="efe10nJoazj5GyihiQMV-1" value="&lt;font style=&quot;font-size: 40px;&quot;&gt;Cache&lt;/font&gt;" style="text;html=1;align=center;verticalAlign=middle;resizable=0;points=[];autosize=1;strokeColor=none;fillColor=none;" vertex="1" parent="1">
          <mxGeometry x="310" y="53" width="140" height="60" as="geometry" />
        </mxCell>
        <mxCell id="OjPTFJ4K3kEGELKlhBjy-1" value="do /storeCache()" style="text;html=1;align=center;verticalAlign=middle;resizable=0;points=[];autosize=1;strokeColor=none;fillColor=none;" vertex="1" parent="1">
          <mxGeometry x="495" y="238" width="110" height="30" as="geometry" />
        </mxCell>
        <mxCell id="5nTTX15i4rpjOd9r5tTO-14" style="edgeStyle=orthogonalEdgeStyle;rounded=0;orthogonalLoop=1;jettySize=auto;html=1;entryX=1;entryY=0.5;entryDx=0;entryDy=0;" edge="1" parent="1" source="3TM7tIFNixQF6uP3WEwU-1" target="Yj814bwFjNX4voatIRAS-2">
          <mxGeometry relative="1" as="geometry" />
        </mxCell>
        <mxCell id="3TM7tIFNixQF6uP3WEwU-1" value="InvÃ¡lido" style="swimlane;childLayout=stackLayout;horizontal=1;startSize=50;horizontalStack=0;rounded=1;fontSize=14;fontStyle=0;strokeWidth=2;resizeParent=0;resizeLast=1;shadow=0;dashed=0;align=center;arcSize=4;whiteSpace=wrap;html=1;" vertex="1" parent="1">
          <mxGeometry x="640" y="330" width="160" height="85" as="geometry" />
        </mxCell>
        <mxCell id="5nTTX15i4rpjOd9r5tTO-10" style="edgeStyle=orthogonalEdgeStyle;rounded=0;orthogonalLoop=1;jettySize=auto;html=1;entryX=0;entryY=0.5;entryDx=0;entryDy=0;" edge="1" parent="1" source="5nTTX15i4rpjOd9r5tTO-5" target="3TM7tIFNixQF6uP3WEwU-1">
          <mxGeometry relative="1" as="geometry" />
        </mxCell>
        <mxCell id="5nTTX15i4rpjOd9r5tTO-5" value="" style="strokeWidth=2;html=1;shape=mxgraph.flowchart.start_2;whiteSpace=wrap;" vertex="1" parent="1">
          <mxGeometry x="552.5" y="290" width="15" height="20" as="geometry" />
        </mxCell>
        <mxCell id="5nTTX15i4rpjOd9r5tTO-6" value="[se desatualizado]" style="text;html=1;align=center;verticalAlign=middle;resizable=0;points=[];autosize=1;strokeColor=none;fillColor=none;" vertex="1" parent="1">
          <mxGeometry x="567.5" y="275" width="120" height="30" as="geometry" />
        </mxCell>
        <mxCell id="5nTTX15i4rpjOd9r5tTO-8" value="" style="endArrow=none;html=1;rounded=0;entryX=0.5;entryY=1;entryDx=0;entryDy=0;exitX=0.5;exitY=0;exitDx=0;exitDy=0;exitPerimeter=0;" edge="1" parent="1" source="5nTTX15i4rpjOd9r5tTO-5" target="Yj814bwFjNX4voatIRAS-2">
          <mxGeometry width="50" height="50" relative="1" as="geometry">
            <mxPoint x="490" y="390" as="sourcePoint" />
            <mxPoint x="540" y="340" as="targetPoint" />
          </mxGeometry>
        </mxCell>
        <mxCell id="5nTTX15i4rpjOd9r5tTO-11" style="edgeStyle=orthogonalEdgeStyle;rounded=0;orthogonalLoop=1;jettySize=auto;html=1;entryX=0.499;entryY=0.225;entryDx=0;entryDy=0;entryPerimeter=0;" edge="1" parent="1" source="5nTTX15i4rpjOd9r5tTO-5" target="Yj814bwFjNX4voatIRAS-4">
          <mxGeometry relative="1" as="geometry" />
        </mxCell>
        <mxCell id="5nTTX15i4rpjOd9r5tTO-12" value="&lt;span style=&quot;color: rgb(0, 0, 0); font-family: Helvetica; font-size: 12px; font-style: normal; font-variant-ligatures: normal; font-variant-caps: normal; font-weight: 400; letter-spacing: normal; orphans: 2; text-align: center; text-indent: 0px; text-transform: none; widows: 2; word-spacing: 0px; -webkit-text-stroke-width: 0px; white-space: nowrap; background-color: rgb(251, 251, 251); text-decoration-thickness: initial; text-decoration-style: initial; text-decoration-color: initial; display: inline !important; float: none;&quot;&gt;/refreshPage()&lt;/span&gt;" style="text;whiteSpace=wrap;html=1;" vertex="1" parent="1">
          <mxGeometry x="730" y="270" width="70" height="40" as="geometry" />
        </mxCell>
        <mxCell id="5nTTX15i4rpjOd9r5tTO-13" value="[se atualizado]" style="text;html=1;align=center;verticalAlign=middle;resizable=0;points=[];autosize=1;strokeColor=none;fillColor=none;" vertex="1" parent="1">
          <mxGeometry x="467.5" y="310" width="100" height="30" as="geometry" />
        </mxCell>
      </root>
    </mxGraphModel>
  </diagram>
</mxfile>
